<svg height="512pt" viewBox="-53 0 512 512" width="512pt" xmlns="http://www.w3.org/2000/svg"><path d="m212.5 7.5h-19c-5.523438 0-10 4.476562-10 10v15h39v-15c0-5.523438-4.476562-10-10-10zm0 0" fill="#ccc"/><path d="m390.5 478.5v26h-375v-26c0-55.039062 23.511719-104.339844 61-138.558594 3.25-2.972656 6.609375-5.820312 10.070312-8.5625l34.929688-.027344 163-.140624 34.671875-.03125c3.546875 2.800781 7 5.71875 10.328125 8.769531 37.488281 34.210937 61 83.511719 61 138.550781zm0 0" fill="#d0e8ef"/><path d="m329.5 339.949219v164.550781h-253v-164.558594c3.25-2.972656 6.609375-5.820312 10.070312-8.5625l34.929688-.027344v98.148438c0 11.050781 8.949219 20 20 20h123c11.050781 0 20-8.949219 20-20v-98.289062l34.671875-.03125c3.546875 2.800781 7 5.71875 10.328125 8.769531zm0 0" fill="#79b6d8"/><path d="m42 206.5c-19.054688 0-34.5 15.445312-34.5 34.5s15.445312 34.5 34.5 34.5h322c19.054688 0 34.5-15.445312 34.5-34.5s-15.445312-34.5-34.5-34.5zm0 0" fill="#fcb670"/><path d="m329.5 339.949219v35.0625c-8.53125-12.902344-18.621094-24.671875-30-35.0625-3.320312-3.039063-6.761719-5.949219-10.300781-8.738281l29.972656-.03125c3.546875 2.800781 7 5.71875 10.328125 8.769531zm0 0" fill="#3b8bb7"/><path d="m61.5 152.5v97.5c0 78.148438 63.351562 141.5 141.5 141.5s141.5-63.351562 141.5-141.5v-97.5zm0 0" fill="#fcd09f"/><path d="m61.5 152.5v54h24c11.046875 0 20-8.953125 20-20v-34zm0 0" fill="#aa8452"/><path d="m203 326.03125c-13.53125 0-24.5-10.96875-24.5-24.5v-15.5c0-2.757812 2.238281-5 5-5h39c2.761719 0 5 2.242188 5 5v15.5c0 13.53125-10.96875 24.5-24.5 24.5zm0 0" fill="#fff"/><path d="m131.5 22.5h143c38.660156 0 70 31.339844 70 70v50h-283v-50c0-38.660156 31.339844-70 70-70zm0 0" fill="#ffd47d"/><path d="m227 79c0 13.253906-10.746094 24-24 24s-24-10.746094-24-24 10.746094-24 24-24 24 10.746094 24 24zm0 0" fill="#fff"/><path d="m344.5 206.5h-24c-11.046875 0-20-8.953125-20-20v-34h44zm0 0" fill="#aa8452"/><path d="m344.5 152.507812v54h-24c-2.089844 0-4.101562-.320312-6-.917968v-53.082032zm0 0" fill="#7f5c3e"/><path d="m196.5 22.5c-33.140625 0-60 26.859375-60 60v60h-75v-50c0-38.660156 31.339844-70 70-70zm0 0" fill="#edaf54"/><path d="m344.5 92.5-.019531 50h-75.5l.019531-60c0-33-27-60-60-60h65.5c38.660156 0 70 31.339844 70 70zm0 0" fill="#edaf54"/><path d="m344.5 92.5-.019531 50h-30l.019531-50c0-38.660156-31.339844-70-70-70h30c38.660156 0 70 31.339844 70 70zm0 0" fill="#db8733"/><path d="m364.5 162.5h-323c-2.761719 0-5-2.238281-5-5v-10c0-8.285156 6.714844-15 15-15h303c8.285156 0 15 6.714844 15 15v10c0 2.761719-2.238281 5-5 5zm0 0" fill="#f4b66c"/><path d="m344.5 206.507812v43.5c0 39.082032-15.839844 74.449219-41.441406 100.058594-25.609375 25.601563-60.980469 41.441406-100.058594 41.441406-5.070312 0-10.070312-.269531-15-.789062 33.089844-3.480469 62.769531-18.371094 85.058594-40.652344 25.601562-25.609375 41.441406-60.976562 41.441406-100.058594v-44.417968c1.898438.597656 3.910156.917968 6 .917968zm0 0" fill="#f4b06c"/><path d="m369.5 147.5v10c0 2.761719-2.238281 5-5 5h-30c2.761719 0 5-2.238281 5-5v-10c0-8.28125-6.71875-15-15-15h30c8.28125 0 15 6.71875 15 15zm0 0" fill="#ea9950"/><path d="m390.5 478.5v26h-30v-26c0-38.328125-11.398438-73.878906-31-103.488281v-35.0625c37.488281 34.210937 61 83.511719 61 138.550781zm0 0" fill="#94ccd3"/><path d="m328.960938 329.503906c8.925781-14.089844 15.550781-29.765625 19.351562-46.503906h15.6875c23.160156 0 42-18.839844 42-42s-18.839844-42-42-42h-12v-29h12.5c6.894531 0 12.5-5.605469 12.5-12.5v-10c0-12.40625-10.09375-22.5-22.5-22.5h-78v-42.5c0-21.1875-9.820312-40.117188-25.140625-52.5h23.140625c34.464844 0 62.5 28.039062 62.5 62.5v5c0 4.140625 3.355469 7.5 7.5 7.5s7.5-3.359375 7.5-7.5v-5c0-42.734375-34.765625-77.5-77.5-77.5h-44.699219c-1.222656-8.464844-8.503906-15-17.300781-15h-19c-8.796875 0-16.082031 6.535156-17.300781 15h-44.699219c-42.734375 0-77.5 34.765625-77.5 77.5v32.5h-2.5c-12.40625 0-22.5 10.09375-22.5 22.5v10c0 6.894531 5.605469 12.5 12.5 12.5h12.5v29h-12c-23.160156 0-42 18.839844-42 42s18.839844 42 42 42h15.6875c3.800781 16.738281 10.425781 32.414062 19.347656 46.5-43.949218 37.113281-69.035156 91.054688-69.035156 149v26c0 4.140625 3.359375 7.5 7.5 7.5h61c4.140625 0 7.5-3.359375 7.5-7.5v-161.214844c.566406-.496094 1.148438-.980468 1.726562-1.472656 8.160157 10.402344 17.675782 19.695312 28.273438 27.617188v60.070312c0 15.164062 12.335938 27.5 27.5 27.5h123c15.164062 0 27.5-12.335938 27.5-27.5v-60.070312c10.597656-7.921876 20.113281-17.214844 28.273438-27.617188.578124.496094 1.15625.984375 1.726562 1.484375v153.703125h-210.5c-4.140625 0-7.5 3.359375-7.5 7.5s3.359375 7.5 7.5 7.5h279c4.144531 0 7.5-3.359375 7.5-7.5v-26c0-57.964844-25.082031-111.886719-69.039062-148.996094zm-259.960938 167.496094h-46v-18.5c0-45.140625 16.480469-87.644531 46-120.40625zm322-256c0 14.886719-12.113281 27-27 27h-13.089844c.714844-5.902344 1.089844-11.90625 1.089844-18v-1.5h11.75c4.144531 0 7.5-3.359375 7.5-7.5s-3.355469-7.5-7.5-7.5h-11.75v-19.5h12c14.886719 0 27 12.113281 27 27zm-54-42h-16.5c-6.894531 0-12.5-5.605469-12.5-12.5v-16.5h29zm-75.5-116.5v42.5h-117.5v-42.5c0-28.949219 23.550781-52.5 52.5-52.5h12.5c28.949219 0 52.5 23.550781 52.5 52.5zm-192.5 10c0-34.460938 28.039062-62.5 62.5-62.5h22.640625c-15.320313 12.382812-25.140625 31.3125-25.140625 52.5v42.5h-60zm-25 55c0-4.136719 3.363281-7.5 7.5-7.5h303c4.136719 0 7.5 3.363281 7.5 7.5v7.5h-318zm54 22.5v16.5c0 6.894531-5.605469 12.5-12.5 12.5h-16.5v-29zm-56 98c-14.886719 0-27-12.113281-27-27s12.113281-27 27-27h12v19.5h-11.75c-4.140625 0-7.5 3.359375-7.5 7.5s3.359375 7.5 7.5 7.5h11.75v1.5c0 6.09375.375 12.097656 1.089844 18zm235 161.5c0 6.894531-5.605469 12.5-12.5 12.5h-123c-6.894531 0-12.5-5.605469-12.5-12.5v-50.210938c21.816406 12.535157 47.085938 19.710938 74 19.710938s52.183594-7.175781 74-19.710938zm-74-45.5c-73.886719 0-134-60.113281-134-134v-36h16.5c15.164062 0 27.5-12.335938 27.5-27.5v-16.5h180v16.5c0 15.164062 12.335938 27.5 27.5 27.5h16.5v36c0 73.886719-60.113281 134-134 134zm180 113h-46v-138.90625c29.523438 32.753906 46 75.253906 46 120.40625zm0 0"/><path d="m139.5 225.46875c-4.140625 0-7.5 3.355469-7.5 7.5v15c0 4.140625 3.359375 7.5 7.5 7.5s7.5-3.359375 7.5-7.5v-15c0-4.144531-3.359375-7.5-7.5-7.5zm0 0"/><path d="m266.5 225.46875c-4.144531 0-7.5 3.355469-7.5 7.5v15c0 4.140625 3.355469 7.5 7.5 7.5s7.5-3.359375 7.5-7.5v-15c0-4.144531-3.355469-7.5-7.5-7.5zm0 0"/><path d="m225.5 273.53125h-45c-5.238281 0-9.5 4.265625-9.5 9.5v18.5c0 17.648438 14.355469 32 32 32s32-14.351562 32-32v-18.5c0-5.238281-4.261719-9.5-9.5-9.5zm-5.5 28c0 9.375-7.625 17-17 17s-17-7.625-17-17v-13h34zm0 0"/><path d="m203 52c-14.886719 0-27 12.113281-27 27s12.113281 27 27 27 27-12.113281 27-27-12.113281-27-27-27zm0 39c-6.617188 0-12-5.382812-12-12s5.382812-12 12-12 12 5.382812 12 12-5.382812 12-12 12zm0 0"/></svg>